# xmcd
#
# Track frame offsets: 
#        182
#        12605
#        24947
#        36870
#        50155
#        65282
#        80822
#        100860
#        122060
#        134850
#        154800
#
# Disc length: 2284 seconds
#
# Revision: 2
# Processed by: cddbd v1.5.2PL0 Copyright (c) Steve Scherf et al.
# Submitted via: ExactAudioCopy v0.99pb3
#
DISCID=9a08ea0b
DTITLE=Marvin Gaye - Motown Legends - Marvin Gaye
DYEAR=1900
DGENRE=
TTITLE0=I'll Be Doggone
TTITLE1=Stubborn Kind Of Fellow
TTITLE2=Change What You Can
TTITLE3=Groovin
TTITLE4=Feel All My Love Inside
TTITLE5=After The Dance
TTITLE6=Far Cry
TTITLE7=You Sure Love To Ball
TTITLE8=I Wish It Would Rain
TTITLE9=Just To Keep You Satisfied
TTITLE10=Life Is For Learning
EXTD=
EXTT0=
EXTT1=
EXTT2=
EXTT3=
EXTT4=
EXTT5=
EXTT6=
EXTT7=
EXTT8=
EXTT9=
EXTT10=
PLAYORDER=
